<?xml version="1.0" standalone="no"?>
<!DOCTYPE svg PUBLIC "-//W3C//DTD SVG 20010904//EN"
 "http://www.w3.org/TR/2001/REC-SVG-20010904/DTD/svg10.dtd">
<svg version="1.0" xmlns="http://www.w3.org/2000/svg"
 width="1254.000000pt" height="1254.000000pt" viewBox="0 0 1254.000000 1254.000000"
 preserveAspectRatio="xMidYMid meet">

<g transform="translate(0.000000,1254.000000) scale(0.100000,-0.100000)"
fill="#000000" stroke="none">
<path d="M4550 11569 c-78 -15 -184 -75 -249 -139 -131 -132 -202 -312 -242
-614 -19 -145 -7 -502 26 -756 l27 -215 -16 -175 c-30 -328 -20 -481 49 -699
29 -93 35 -128 35 -200 0 -106 -14 -162 -84 -333 -64 -158 -128 -351 -161
-491 -27 -114 -68 -357 -62 -364 3 -2 14 29 26 69 52 175 150 405 247 579 67
121 151 242 300 434 132 169 186 300 170 410 -7 45 -15 55 -80 117 -40 37 -84
89 -98 115 -76 140 -77 287 -3 413 9 15 15 51 15 88 0 69 -14 104 -79 197 -48
69 -104 206 -125 306 -27 133 -39 346 -27 492 26 306 113 490 272 574 49 25
63 28 155 28 95 0 103 -2 176 -37 117 -58 269 -210 373 -373 21 -33 78 -100
125 -150 161 -166 339 -412 439 -605 23 -44 45 -80 48 -80 11 0 108 62 150 96
96 78 129 218 77 322 -31 62 -88 115 -389 354 -121 96 -299 244 -395 328 -96
84 -203 172 -236 196 -147 105 -306 144 -464 113z"/>
<path d="M5846 11395 c-171 -15 -443 -53 -464 -65 -22 -11 63 -77 122 -94 75
-22 210 -43 386 -61 195 -20 401 -49 533 -77 89 -18 140 -21 392 -23 306 -1
395 -10 658 -61 432 -84 884 -279 1317 -567 125 -84 465 -337 553 -412 34 -29
63 -52 64 -51 1 1 -11 28 -27 60 -45 90 -46 107 -6 268 99 403 87 615 -47 815
-89 133 -204 197 -354 195 -90 -1 -161 -21 -272 -76 -111 -56 -169 -74 -261
-84 l-75 -7 88 -38 c100 -41 189 -67 237 -67 41 0 36 -15 -19 -57 -103 -79
-190 -73 -446 32 -425 175 -958 308 -1445 360 -206 23 -729 28 -934 10z m3342
-401 c75 -90 96 -290 51 -469 -14 -57 -70 -225 -74 -225 -2 0 -26 24 -52 52
-71 78 -141 143 -200 185 -29 21 -53 40 -53 43 0 3 19 16 42 29 57 32 135 106
170 160 15 25 28 48 28 53 0 4 -30 -6 -66 -23 -37 -16 -69 -27 -71 -25 -3 2
13 28 35 58 22 29 50 73 62 98 55 110 80 122 128 64z"/>
<path d="M4947 11168 c50 -52 148 -181 232 -306 24 -35 45 -62 47 -59 4 4 -63
130 -122 228 -30 50 -177 189 -200 189 -5 0 15 -24 43 -52z"/>
<path d="M4604 11040 c-133 -53 -173 -485 -74 -787 34 -103 59 -154 110 -224
104 -140 130 -251 91 -390 -25 -91 -26 -120 -4 -184 11 -34 36 -69 79 -114
l63 -64 49 44 c27 24 91 91 143 148 52 58 130 142 173 188 44 46 78 83 75 83
-2 0 -37 -9 -76 -19 -40 -11 -73 -16 -73 -12 0 21 142 136 278 226 40 26 71
49 69 51 -1 2 -23 -2 -47 -8 -56 -13 -199 -4 -266 17 -63 18 -147 55 -142 61
3 2 43 9 89 15 115 15 123 22 49 43 -35 10 -113 43 -174 74 l-111 57 140 5
140 5 -45 20 c-91 40 -163 89 -245 166 -85 79 -87 90 -15 69 38 -12 193 -39
198 -35 1 1 -30 26 -69 55 -48 36 -101 90 -160 164 -79 100 -102 137 -67 109
12 -10 148 -72 206 -94 17 -7 8 8 -33 53 -31 35 -73 87 -93 117 -93 141 -178
194 -258 161z"/>
<path d="M7080 10922 c163 -60 181 -69 174 -86 -5 -13 2 -16 35 -16 22 0 65
-9 95 -20 31 -12 65 -18 78 -15 13 3 46 1 72 -5 50 -11 321 -111 409 -150 53
-23 87 -19 87 11 0 25 -51 58 -190 120 -150 67 -214 89 -264 89 -23 0 -76 11
-119 25 -77 25 -305 67 -422 79 l-60 6 105 -38z"/>
<path d="M5859 10877 c23 -29 208 -157 258 -179 58 -25 156 -29 194 -8 15 8
42 24 60 34 22 13 65 22 122 27 48 4 94 13 103 20 27 23 12 52 -41 79 -43 21
-63 25 -140 24 -49 0 -122 -4 -160 -8 -47 -6 -89 -5 -125 3 -30 7 -107 15
-170 18 -106 6 -114 5 -101 -10z"/>
<path d="M3845 10799 c-685 -343 -1302 -859 -1792 -1499 -386 -503 -690 -1120
-867 -1760 -186 -672 -216 -1496 -80 -2216 155 -823 502 -1572 1031 -2225 137
-169 498 -534 663 -670 795 -658 1679 -1026 2735 -1139 164 -18 633 -24 815
-11 690 49 1310 219 1920 525 487 245 901 544 1290 935 598 602 1011 1302
1245 2111 126 438 172 748 182 1225 6 325 -4 510 -43 790 -89 635 -279 1161
-587 1628 -50 75 -94 137 -99 137 -4 0 -20 -24 -34 -52 l-27 -53 13 -107 c20
-174 -8 -317 -77 -393 -46 -50 -75 -113 -62 -136 8 -16 -18 -110 -31 -109 -8
1 -176 280 -199 331 -28 60 -26 77 7 90 133 53 165 80 208 172 14 33 31 93 36
135 13 101 22 117 77 137 72 27 183 87 174 95 -4 4 -37 17 -73 30 -90 33 -204
32 -315 -4 -76 -24 -165 -71 -179 -95 -11 -18 -26 -13 -26 10 0 33 -22 109
-31 109 -5 0 -9 -11 -9 -25 0 -14 -9 -57 -19 -97 -30 -111 -35 -209 -17 -320
26 -161 53 -221 281 -624 227 -400 303 -559 327 -689 7 -36 16 -65 20 -65 13
0 30 115 25 170 -7 83 -53 210 -130 360 l-68 134 34 81 c19 44 49 121 67 170
18 50 35 98 39 109 15 42 183 -363 270 -651 130 -433 184 -804 184 -1253 -1
-443 -67 -840 -213 -1280 -308 -925 -912 -1777 -1655 -2335 -516 -387 -1106
-648 -1705 -754 -410 -73 -842 -80 -1233 -21 -343 52 -698 166 -947 304 -76
42 -223 136 -219 140 2 2 56 27 119 56 418 187 785 455 1013 740 122 152 240
360 301 528 34 96 33 103 -10 45 -123 -164 -303 -293 -499 -357 -68 -22 -214
-50 -222 -43 -1 2 41 34 94 72 113 83 284 248 373 360 140 177 273 412 340
600 35 100 100 330 100 354 0 9 -18 -17 -40 -56 -190 -349 -504 -669 -889
-903 -316 -193 -437 -285 -591 -447 -96 -101 -186 -229 -265 -373 l-46 -85 4
140 c6 159 22 228 86 362 49 101 103 181 187 278 36 41 63 75 60 75 -19 0
-168 -60 -251 -102 -232 -115 -379 -246 -460 -411 -25 -51 -52 -125 -61 -167
-21 -101 -14 -285 15 -399 12 -46 20 -85 18 -88 -5 -4 -91 94 -144 162 -73 95
-166 294 -193 411 -10 46 -15 52 -58 73 -147 70 -346 216 -487 356 -258 255
-442 587 -529 953 -13 56 -22 102 -21 102 2 0 29 -48 61 -107 265 -484 684
-813 1143 -898 129 -24 135 -19 41 33 -419 235 -772 648 -990 1156 -161 374
-228 695 -239 1141 l-7 260 -71 -145 c-156 -318 -252 -666 -284 -1035 -11
-122 -7 -420 7 -540 l5 -50 -36 80 c-81 181 -151 422 -181 630 -23 159 -23
481 0 655 22 165 67 384 116 561 21 79 37 145 35 147 -10 10 -187 -335 -230
-451 -10 -26 -20 -45 -22 -43 -3 3 3 53 12 113 109 704 593 1531 1632 2793 84
101 83 102 -15 28 -171 -129 -387 -258 -547 -324 -87 -36 -275 -97 -281 -91
-2 1 43 37 99 79 223 166 498 428 650 618 206 258 335 523 372 770 18 113 20
270 4 270 -15 0 -161 -88 -313 -188 -468 -308 -869 -677 -1171 -1077 -335
-442 -570 -897 -721 -1395 -37 -122 -96 -371 -89 -378 2 -2 19 27 39 66 19 38
66 116 105 173 159 236 349 409 591 537 83 44 274 122 298 122 5 0 -43 -53
-106 -117 -316 -324 -599 -766 -746 -1168 -230 -628 -229 -1292 4 -1994 297
-892 898 -1667 1720 -2216 221 -147 383 -241 585 -340 436 -212 864 -359 1310
-451 185 -37 164 -43 -56 -14 -348 46 -571 97 -894 205 -441 147 -787 316
-1170 570 -897 597 -1562 1513 -1875 2583 -169 576 -224 1227 -154 1830 105
912 489 1789 1094 2497 121 142 414 435 557 557 246 211 569 440 819 581 l121
68 7 152 c3 84 9 164 12 180 4 15 2 27 -2 26 -5 0 -45 -18 -89 -40z m6136
-2294 c-23 -101 -109 -194 -182 -195 -23 0 -27 6 -37 51 -18 76 -17 79 26 79
47 0 86 24 142 88 54 60 68 54 51 -23z"/>
<path d="M6818 10775 c-73 -41 -1 -116 144 -150 124 -29 198 -15 185 37 -18
72 -257 154 -329 113z"/>
<path d="M8115 10631 c-10 -16 63 -79 106 -92 32 -10 45 -10 60 -1 17 11 25 9
52 -12 67 -51 187 -94 187 -67 0 16 -72 72 -116 91 -63 27 -114 36 -114 19 0
-10 -3 -10 -8 -3 -4 6 -32 25 -63 43 -56 31 -93 39 -104 22z"/>
<path d="M7556 10622 c-14 -23 17 -83 53 -108 44 -29 156 -70 219 -80 37 -6
42 -4 42 13 0 38 -122 128 -224 163 -61 22 -82 24 -90 12z"/>
<path d="M7975 10493 c6 -5 48 -39 95 -74 47 -35 117 -91 155 -124 39 -33 109
-89 157 -123 101 -73 202 -179 219 -230 27 -83 99 -171 99 -122 0 11 4 20 9
20 10 0 100 -129 126 -180 9 -19 41 -66 70 -105 81 -106 220 -355 238 -426 3
-13 9 -20 13 -16 10 10 -33 176 -75 291 -48 127 -72 174 -106 206 -15 14 -44
61 -65 105 -32 67 -54 95 -132 170 -52 50 -117 109 -146 133 -30 25 -52 51
-52 63 0 10 -18 37 -41 59 -36 34 -284 194 -489 315 -79 47 -88 51 -75 38z"/>
<path d="M6697 10436 c-42 -15 -77 -43 -77 -60 0 -6 -13 -23 -30 -38 -22 -20
-30 -35 -30 -61 0 -83 124 -108 218 -43 21 14 48 26 60 26 66 0 120 56 102
105 -17 46 -92 84 -165 84 -22 0 -57 -6 -78 -13z"/>
<path d="M7294 10439 c-58 -17 -83 -74 -55 -127 12 -23 60 -52 84 -52 8 0 21
-7 28 -17 43 -51 174 -70 223 -32 50 39 30 98 -49 145 -25 14 -45 30 -45 36 0
12 -75 44 -120 51 -19 3 -49 1 -66 -4z"/>
<path d="M8710 10301 c0 -27 130 -118 207 -145 49 -17 57 -13 38 24 -30 58
-245 164 -245 121z"/>
<path d="M8147 10273 c-16 -15 -5 -46 26 -75 41 -39 146 -108 164 -108 45 0
-34 103 -124 160 -50 32 -56 34 -66 23z"/>
<path d="M8626 10194 c12 -51 23 -63 86 -95 105 -53 104 -1 -2 71 -84 57 -93
59 -84 24z"/>
<path d="M7795 10125 c-68 -67 11 -205 116 -205 22 0 61 -13 94 -30 65 -34
105 -38 128 -12 39 43 13 104 -80 186 -96 86 -207 112 -258 61z"/>
<path d="M9115 10040 c-3 -5 1 -20 10 -34 18 -27 143 -134 179 -153 24 -12 66
-7 66 8 0 21 -77 92 -150 138 -82 53 -95 58 -105 41z"/>
<path d="M7062 10003 c-23 -8 -50 -26 -60 -39 -9 -14 -32 -43 -49 -65 -64 -79
-32 -162 61 -162 54 0 88 20 121 72 15 24 44 50 76 68 61 33 74 50 65 86 -13
54 -120 74 -214 40z"/>
<path d="M6420 9908 c-19 -5 -48 -20 -65 -32 -16 -13 -53 -29 -82 -35 -43 -10
-61 -23 -108 -72 -96 -101 -135 -223 -100 -315 54 -142 237 -93 261 71 6 42
15 57 58 100 28 28 79 65 113 83 74 39 103 72 103 118 0 42 -25 69 -77 83 -45
13 -56 13 -103 -1z"/>
<path d="M9070 9884 c0 -3 16 -36 35 -73 54 -102 175 -215 202 -187 13 13 -19
85 -58 134 -55 68 -179 155 -179 126z"/>
<path d="M9670 9710 c225 -241 294 -330 347 -446 34 -74 41 -161 20 -235 -9
-29 -15 -55 -13 -56 1 -2 31 9 66 23 73 30 95 27 146 -19 l37 -32 -6 70 c-17
208 -171 401 -564 710 -168 132 -169 132 -33 -15z"/>
<path d="M8300 9761 c-25 -48 10 -167 54 -184 9 -3 27 -30 42 -59 33 -67 68
-105 111 -119 29 -9 37 -8 54 7 22 20 22 69 0 166 -14 63 -28 83 -107 151 -55
48 -72 57 -104 57 -29 0 -42 -5 -50 -19z"/>
<path d="M7857 9682 c-41 -45 -61 -114 -60 -212 0 -80 5 -108 31 -180 17 -46
30 -86 28 -87 -1 -2 -29 7 -62 19 -112 41 -300 23 -405 -38 -26 -16 -34 -27
-34 -50 0 -25 7 -32 49 -53 46 -23 60 -25 174 -23 83 1 148 -3 195 -14 87 -20
215 -78 280 -127 26 -21 50 -37 53 -37 3 0 28 -15 57 -33 110 -70 230 -203
272 -300 21 -48 18 -8 -6 86 -33 132 -72 202 -159 287 -112 110 -173 252 -190
442 -10 119 -48 206 -124 284 -56 58 -74 64 -99 36z"/>
<path d="M9493 9643 c11 -67 83 -194 159 -278 106 -118 158 -247 158 -393 0
-40 4 -71 9 -68 4 3 18 37 31 76 19 58 22 85 18 167 -5 112 -26 180 -83 269
-70 109 -236 264 -283 264 -11 0 -13 -9 -9 -37z"/>
<path d="M9290 9440 c0 -74 99 -296 137 -308 16 -5 27 59 19 116 -17 124 -156
295 -156 192z"/>
<path d="M6784 9416 c-83 -37 -97 -120 -37 -218 51 -82 84 -98 207 -98 87 0
97 2 125 26 21 18 31 35 31 54 0 44 -8 57 -60 90 -32 21 -55 45 -68 73 -11 23
-29 51 -41 61 -27 25 -114 32 -157 12z"/>
<path d="M8660 9265 c-22 -23 -25 -35 -23 -88 1 -34 2 -99 2 -145 1 -89 12
-121 54 -160 41 -38 67 -27 101 43 54 111 41 224 -38 328 -39 51 -64 57 -96
22z"/>
<path d="M5850 9204 c-68 -29 -120 -96 -120 -153 0 -44 49 -81 106 -81 64 0
178 54 204 95 22 36 26 76 9 107 -24 44 -130 62 -199 32z"/>
<path d="M9589 9133 c-9 -25 -3 -78 22 -174 5 -20 9 -48 9 -62 0 -34 21 -78
34 -74 20 6 47 109 41 152 -11 77 -61 185 -86 185 -5 0 -14 -12 -20 -27z"/>
<path d="M5269 8981 c-217 -123 -400 -305 -501 -498 -59 -112 -82 -190 -74
-251 4 -26 7 -57 7 -69 2 -44 -77 -189 -168 -309 -150 -198 -236 -355 -302
-553 -61 -182 -75 -275 -75 -496 -1 -175 2 -213 22 -305 43 -189 137 -389 252
-535 54 -68 143 -242 179 -350 52 -158 64 -246 58 -455 -2 -102 -8 -196 -12
-210 -13 -46 58 73 101 170 72 164 106 315 124 555 14 193 23 246 65 380 95
304 288 530 566 665 46 22 92 40 104 40 31 0 173 39 209 57 88 44 113 109 54
139 -68 35 -182 30 -303 -15 -27 -11 -83 -26 -124 -35 -241 -53 -468 -239
-601 -491 l-29 -55 -11 37 c-21 70 -24 261 -6 354 19 98 89 249 161 347 51 71
47 73 -45 26 -147 -76 -267 -197 -350 -355 l-37 -71 -17 67 c-38 151 -38 368
-1 529 38 161 123 354 213 481 27 39 84 108 127 154 92 99 150 186 170 255 19
62 19 153 0 186 -56 99 69 376 263 581 35 38 61 69 56 68 -5 -1 -39 -18 -75
-38z"/>
<path d="M9184 8927 c4 -61 13 -111 26 -139 11 -24 20 -51 20 -60 0 -10 5 -18
10 -18 6 0 10 39 10 98 0 81 -4 105 -24 148 -41 87 -50 81 -42 -29z"/>
<path d="M6830 8835 c0 -3 9 -23 20 -44 41 -81 165 -163 273 -181 31 -5 65
-13 75 -19 11 -6 47 -55 81 -109 138 -226 311 -311 574 -282 159 17 205 5 252
-69 26 -42 60 -60 78 -42 12 12 28 -38 46 -143 15 -86 -6 -216 -54 -341 -11
-28 64 45 125 121 102 127 158 266 147 369 -7 68 -32 116 -112 215 -76 95
-123 182 -159 302 -22 74 -31 89 -59 106 -148 92 -387 116 -710 73 -232 -31
-314 -27 -483 24 -87 27 -94 28 -94 20z m820 -174 c38 -10 38 -40 1 -47 -35
-7 -39 -25 -17 -78 42 -100 152 -100 215 0 22 33 30 40 35 28 11 -29 6 -51
-20 -89 l-26 -38 29 18 c15 9 39 28 54 41 52 49 64 21 25 -62 -89 -192 -387
-171 -493 35 -26 50 -33 75 -33 121 l0 59 38 6 c20 4 42 8 47 10 18 6 119 3
145 -4z"/>
<path d="M6307 8789 c-55 -13 -95 -36 -114 -67 -10 -14 -26 -35 -35 -44 -29
-29 -32 -64 -9 -102 47 -76 194 -76 275 0 20 19 41 34 46 34 15 0 50 61 50 88
0 31 -40 69 -86 81 -70 18 -88 20 -127 10z"/>
<path d="M8780 8700 c-12 -12 -20 -33 -20 -54 0 -39 18 -96 31 -96 18 0 49 65
49 102 0 69 -21 87 -60 48z"/>
<path d="M5663 8680 c-75 -38 -114 -80 -142 -155 -25 -67 -26 -77 -6 -115 22
-43 68 -64 127 -57 62 8 147 54 167 91 9 16 26 41 39 57 73 89 32 194 -81 206
-33 4 -55 -2 -104 -27z"/>
<path d="M6625 8426 c-68 -21 -104 -45 -135 -87 -16 -23 -50 -54 -75 -70 -77
-49 -102 -131 -56 -183 66 -75 252 -60 299 25 32 59 64 90 126 121 33 16 69
40 78 51 43 54 1 117 -93 142 -65 18 -91 18 -144 1z"/>
<path d="M5775 8027 c-66 -18 -108 -41 -159 -87 -73 -67 -109 -78 -203 -64
-28 4 -59 0 -95 -12 -160 -52 -320 -363 -213 -412 37 -17 84 -15 157 8 34 11
78 20 96 20 29 0 32 -3 32 -29 0 -36 42 -79 86 -87 75 -14 182 31 239 101 18
22 49 74 69 116 38 81 58 102 166 172 172 111 135 272 -64 283 -34 2 -83 -2
-111 -9z"/>
<path d="M7034 8018 c-30 -14 -46 -52 -35 -82 11 -27 55 -64 86 -72 12 -3 38
-25 58 -49 42 -50 107 -72 182 -61 105 16 112 78 15 130 -30 16 -57 34 -59 39
-9 24 -69 81 -98 93 -38 16 -119 17 -149 2z"/>
<path d="M3564 7923 c-322 -449 -512 -872 -585 -1303 -29 -175 -32 -461 -5
-615 62 -346 209 -653 437 -908 34 -37 63 -66 65 -64 2 2 -16 58 -41 124 -239
632 -277 1321 -109 1988 64 253 171 563 264 761 28 59 49 109 47 110 -2 2 -34
-40 -73 -93z"/>
<path d="M8547 7695 c-41 -136 -21 -238 54 -284 36 -22 107 -46 115 -39 7 8
-31 81 -51 98 -22 18 -63 100 -90 180 -16 49 -23 60 -28 45z"/>
<path d="M6374 7621 c-50 -23 -84 -64 -84 -104 0 -96 157 -191 288 -173 40 5
53 2 99 -26 29 -18 53 -39 53 -48 0 -9 9 -26 20 -38 36 -38 81 -55 151 -56 54
-1 72 3 105 25 21 14 59 29 84 32 79 10 118 88 68 134 -45 41 -97 56 -210 59
-133 3 -215 34 -253 95 -63 99 -217 147 -321 100z"/>
<path d="M7570 7479 c-19 -5 -52 -11 -73 -14 -74 -12 -134 -94 -95 -133 20
-20 85 -14 136 12 82 41 148 148 90 145 -13 -1 -39 -5 -58 -10z"/>
<path d="M8774 7163 c-12 -45 11 -145 51 -224 74 -149 179 -247 354 -334 64
-31 134 -72 157 -90 43 -35 150 -210 160 -263 11 -52 -22 -139 -73 -193 -51
-55 -144 -105 -408 -222 -266 -117 -445 -167 -593 -167 -106 1 -264 53 -308
102 -16 17 -15 18 28 18 25 0 63 7 83 16 35 14 43 14 94 -2 53 -16 56 -16 90
2 42 22 52 57 22 73 -11 6 -68 10 -133 9 -105 -2 -120 0 -213 31 -84 29 -116
35 -200 36 -55 1 -156 12 -225 23 -220 38 -357 52 -505 52 -169 0 -270 -12
-380 -47 -89 -28 -231 -90 -223 -98 3 -3 38 2 79 11 172 37 331 29 497 -24
129 -42 220 -100 351 -225 128 -121 197 -172 305 -223 225 -107 528 -73 738
84 35 26 90 57 123 69 33 11 114 42 180 68 295 116 513 161 648 136 81 -15
172 -58 207 -97 16 -19 32 -34 36 -34 13 0 -3 146 -20 177 -9 18 -36 55 -61
83 -62 69 -78 105 -72 152 13 97 110 226 231 308 93 62 126 101 175 203 41 86
169 244 211 259 25 9 50 65 50 111 0 43 -26 67 -71 67 -32 0 -54 -11 -184 -86
-45 -26 -58 -29 -140 -28 -85 0 -96 3 -190 46 -143 65 -170 72 -265 72 -73 0
-97 -5 -165 -33 -129 -53 -188 -32 -331 115 -50 52 -94 94 -98 94 -3 0 -9 -12
-12 -27z"/>
<path d="M10336 6975 c-4 -20 -26 -71 -49 -113 l-41 -77 -1 -150 c0 -127 -3
-160 -22 -215 -12 -36 -30 -91 -39 -123 -30 -100 -141 -279 -214 -344 -30 -27
-38 -28 -61 -7 -16 14 -18 14 -29 -6 -9 -18 -8 -25 5 -40 14 -15 14 -22 5 -42
-17 -32 -91 -108 -107 -108 -9 0 -11 -16 -6 -66 4 -45 0 -97 -12 -165 -19
-101 -35 -129 -35 -61 0 76 -16 62 -33 -30 -31 -179 -137 -334 -302 -445 -72
-48 -145 -86 -152 -79 -3 2 7 20 21 38 29 39 70 127 63 135 -3 2 -29 -14 -58
-37 -94 -74 -241 -138 -402 -175 -94 -22 -251 -35 -320 -27 l-58 7 68 45 c37
25 69 50 70 56 2 6 -16 11 -44 13 -68 3 -150 26 -297 82 -159 62 -215 73 -336
66 -255 -16 -507 -137 -717 -345 -67 -67 -168 -191 -160 -198 1 -2 50 21 107
50 113 58 235 104 359 136 100 25 267 50 333 49 53 0 53 0 28 -17 -93 -64
-158 -119 -250 -212 -224 -224 -362 -476 -454 -828 -68 -257 -141 -422 -265
-597 -76 -108 -275 -305 -391 -387 -110 -78 -293 -174 -430 -224 l-95 -34 180
4 c208 4 372 32 564 95 544 179 1014 567 1245 1029 20 39 39 72 42 72 9 0 -6
-165 -22 -250 -37 -185 -136 -420 -247 -587 -238 -357 -642 -651 -1102 -803
-80 -26 -149 -50 -152 -54 -19 -18 403 7 582 35 620 97 1226 371 1745 788 594
476 1001 1092 1212 1831 l38 135 -5 -155 c-3 -97 -12 -189 -24 -245 -10 -49
-18 -91 -16 -93 4 -4 103 241 147 363 89 248 190 676 223 945 53 436 38 899
-41 1265 -14 66 -29 124 -34 128 -4 5 -11 -8 -14 -28z"/>
<path d="M7865 6931 c-58 -5 -91 -13 -117 -29 -43 -27 -74 -70 -60 -84 5 -5
51 -11 103 -14 65 -4 107 -12 137 -26 79 -37 182 -4 182 57 0 31 -37 75 -76
91 -35 15 -39 15 -169 5z"/>
<path d="M8258 6819 c-29 -16 -40 -46 -28 -70 27 -49 137 -62 160 -19 30 55
-73 124 -132 89z"/>
<path d="M8533 6720 c-13 -5 -23 -16 -23 -23 0 -24 36 -49 67 -45 37 4 44 39
11 62 -25 18 -25 18 -55 6z"/>
<path d="M6845 6650 c-111 -8 -306 -34 -357 -48 -15 -4 104 -7 265 -8 219 0
323 -4 417 -17 281 -39 614 -108 665 -138 42 -25 122 -34 154 -17 43 23 48 44
21 74 -38 40 -73 54 -136 54 -31 0 -82 7 -114 15 -240 62 -664 101 -915 85z"/>
<path d="M8163 6455 c-29 -21 -29 -36 2 -65 48 -45 170 -36 163 12 -7 51 -119
87 -165 53z"/>
<path d="M6835 6409 c137 -13 326 -47 470 -84 133 -35 553 -176 635 -214 58
-26 120 -27 151 -2 23 19 23 21 9 47 -20 37 -83 67 -144 70 -29 1 -95 19 -151
39 -282 104 -585 156 -895 154 -159 -2 -162 -2 -75 -10z"/>
<path d="M8491 6411 c-29 -8 -46 -32 -38 -54 3 -9 25 -21 49 -28 34 -9 48 -8
67 2 30 17 35 30 19 52 -16 21 -65 35 -97 28z"/>
<path d="M10118 6375 c-6 -14 -8 -28 -5 -31 9 -10 34 13 40 36 8 30 -21 25
-35 -5z"/>
<path d="M8735 6357 c-16 -13 -17 -17 -6 -31 17 -20 65 -21 81 -1 25 30 -40
57 -75 32z"/>
<path d="M10042 6348 c-18 -18 -15 -41 4 -34 9 3 18 6 20 6 8 0 4 29 -4 34 -5
3 -14 0 -20 -6z"/>
<path d="M8248 6153 c-54 -8 -62 -59 -12 -81 36 -17 109 -15 124 3 33 40 -37
89 -112 78z"/>
<path d="M10014 6125 c-9 -14 -14 -28 -10 -32 8 -9 46 27 46 44 0 21 -18 15
-36 -12z"/>
<path d="M9927 6125 c-4 -8 -2 -17 4 -21 11 -6 39 13 39 27 0 15 -37 10 -43
-6z"/>
<path d="M8500 6117 c-40 -20 -37 -44 8 -58 50 -15 96 -2 100 29 5 36 -59 54
-108 29z"/>
<path d="M8755 6116 c-28 -20 -12 -46 28 -46 42 0 66 23 47 45 -15 19 -50 19
-75 1z"/>
<path d="M5920 6113 c-104 -17 -300 -110 -414 -195 -215 -161 -380 -404 -470
-694 -72 -229 -109 -330 -154 -424 -54 -112 -156 -267 -240 -365 -145 -169
-368 -328 -586 -417 -42 -17 -75 -32 -74 -34 2 -2 59 8 126 21 350 68 674 236
907 470 199 199 295 375 365 670 64 269 158 486 285 657 36 48 115 140 176
203 61 63 110 114 108 114 -2 -1 -15 -4 -29 -6z"/>
<path d="M8733 5913 c-7 -2 -13 -11 -13 -19 0 -18 34 -18 49 -1 17 22 -4 34
-36 20z"/>
<path d="M8572 5884 c-18 -13 -21 -19 -11 -30 6 -8 24 -14 39 -14 33 0 76 32
66 48 -10 17 -68 15 -94 -4z"/>
<path d="M6725 5492 c-317 -81 -591 -370 -718 -757 -30 -89 -52 -190 -61 -280
l-7 -60 41 75 c163 297 357 506 650 704 117 80 333 185 468 231 63 20 110 41
105 45 -4 5 -39 18 -78 30 -98 32 -300 37 -400 12z"/>
<path d="M5840 5421 c-112 -34 -192 -139 -224 -294 -28 -135 -18 -232 43 -418
54 -161 73 -254 75 -364 0 -52 4 -95 7 -95 11 0 47 160 59 257 11 91 4 223
-20 393 -24 164 -5 303 60 438 22 46 40 86 40 88 0 5 -9 4 -40 -5z"/>
</g>
</svg>
