<?xml version="1.0" standalone="no"?>
<!DOCTYPE svg PUBLIC "-//W3C//DTD SVG 20010904//EN"
 "http://www.w3.org/TR/2001/REC-SVG-20010904/DTD/svg10.dtd">
<svg version="1.0" xmlns="http://www.w3.org/2000/svg"
 width="1254.000000pt" height="1254.000000pt" viewBox="0 0 1254.000000 1254.000000"
 preserveAspectRatio="xMidYMid meet">

<g transform="translate(0.000000,1254.000000) scale(0.100000,-0.100000)"
fill="#000000" stroke="none">
<path d="M3560 11471 c-133 -19 -239 -71 -343 -169 -260 -246 -401 -656 -384
-1117 8 -210 47 -396 138 -646 l41 -114 -13 -175 c-22 -281 -17 -509 15 -755
46 -346 30 -555 -68 -885 -19 -63 -33 -117 -30 -119 5 -5 0 -13 67 101 121
205 294 454 450 646 l60 73 -13 77 c-20 129 -53 202 -138 314 -82 109 -120
235 -107 358 4 36 25 121 47 189 56 173 55 187 -25 352 -118 244 -164 409
-174 629 -12 280 60 559 197 768 202 306 483 338 850 96 161 -106 382 -319
615 -593 178 -211 225 -292 225 -392 0 -42 -5 -55 -28 -79 -16 -15 -48 -34
-71 -41 -36 -11 -50 -10 -99 6 -31 9 -78 28 -104 41 -27 14 -48 20 -48 15 0
-6 25 -31 55 -57 l55 -47 -61 -37 c-33 -21 -62 -40 -66 -44 -3 -3 58 -6 136
-5 79 0 145 -2 147 -4 2 -2 -16 -48 -42 -101 -25 -54 -44 -100 -42 -101 2 -2
44 28 93 67 246 195 491 325 751 398 49 14 91 29 93 33 1 5 -129 96 -289 203
-477 318 -611 420 -890 673 -330 300 -576 426 -865 444 -44 3 -105 2 -135 -2z"/>
<path d="M3680 10981 c0 -6 11 -11 25 -11 39 0 151 -46 234 -96 103 -63 216
-152 341 -270 113 -108 113 -97 1 56 -150 205 -326 317 -513 328 -62 3 -88 1
-88 -7z"/>
<path d="M9425 10856 c-115 -31 -185 -58 -550 -221 -165 -73 -378 -162 -472
-197 -95 -34 -173 -65 -173 -68 0 -4 17 -12 38 -19 60 -21 276 -126 375 -182
152 -87 307 -192 400 -274 48 -42 87 -73 87 -69 0 5 5 3 11 -3 12 -12 55 -1
94 23 37 23 148 55 158 45 22 -22 -4 -79 -59 -131 -46 -41 -54 -53 -44 -65 6
-8 9 -18 6 -23 -3 -5 49 -73 116 -153 188 -225 316 -428 417 -664 38 -89 61
-129 88 -153 20 -17 38 -30 40 -28 2 2 -40 91 -93 198 l-97 195 66 154 c103
240 170 454 214 689 13 72 17 144 17 295 0 221 -13 293 -74 423 -42 90 -145
191 -225 222 -91 35 -223 37 -340 6z m81 -293 c51 -33 8 -107 -105 -180 -51
-33 -54 -33 -72 -17 -25 22 -19 41 39 126 39 59 69 84 105 87 4 1 19 -7 33
-16z m-364 -171 c12 -21 43 -64 67 -97 46 -60 54 -95 28 -122 -26 -26 -302
-15 -359 13 -15 8 -35 14 -46 14 -10 0 -27 6 -37 14 -17 12 -18 17 -7 37 7 13
37 46 67 72 44 39 63 48 101 52 26 3 55 12 63 19 26 24 73 45 87 39 7 -3 24
-21 36 -41z m646 -14 l53 -63 -4 -90 c-4 -97 -16 -156 -33 -162 -22 -7 -57 64
-85 171 -25 93 -34 115 -59 134 -38 30 -38 39 3 56 56 25 69 20 125 -46z
m-263 -138 c3 -5 -8 -16 -24 -25 -17 -8 -35 -24 -40 -34 -12 -22 -60 -36 -73
-23 -17 17 11 53 55 73 47 21 73 24 82 9z m145 -244 c142 -60 154 -76 124
-154 -19 -51 -194 -237 -216 -230 -20 7 -26 44 -27 165 -1 93 -5 124 -25 177
-16 43 -21 67 -14 74 17 17 69 6 158 -32z"/>
<path d="M6045 10849 c-174 -18 -373 -64 -520 -121 l-60 -23 215 -7 c619 -21
1028 -101 1453 -286 455 -198 883 -551 1190 -981 37 -51 68 -98 68 -105 1 -6
3 -40 3 -76 3 -102 58 -186 188 -287 54 -41 152 -249 212 -446 32 -106 77
-333 92 -459 3 -32 10 -58 15 -58 5 0 9 7 9 15 0 9 8 14 23 12 20 -2 22 2 25
60 2 40 -2 75 -12 95 -9 22 -16 86 -20 190 -7 172 -24 289 -61 418 -18 64 -22
94 -16 120 18 79 -37 190 -121 245 -35 23 -58 52 -102 127 -162 276 -458 641
-695 855 -58 53 -110 100 -116 105 -5 5 15 0 45 -12 171 -67 285 -121 448
-214 100 -57 182 -102 182 -99 0 3 -25 34 -55 69 -64 72 -178 170 -280 238
-81 55 -278 153 -382 190 -39 13 -124 52 -190 84 -123 62 -231 104 -368 142
-44 12 -134 44 -200 71 -132 53 -312 101 -463 124 -124 19 -390 27 -507 14z"/>
<path d="M3603 10616 c-170 -54 -263 -228 -250 -466 8 -129 45 -250 119 -390
130 -244 147 -281 163 -354 16 -70 16 -83 0 -201 -20 -144 -13 -208 32 -305
32 -69 53 -145 53 -190 0 -31 -16 -106 -37 -175 -3 -11 76 64 176 167 177 182
345 338 524 488 l89 74 -54 25 c-58 28 -142 86 -172 120 -19 21 -19 21 16 21
44 0 132 26 181 53 l37 21 -59 31 c-85 46 -176 113 -266 197 l-78 73 116 5
116 5 -147 166 c-81 92 -170 186 -199 210 l-52 44 44 3 c24 2 81 -6 127 -17
46 -10 84 -18 86 -16 6 6 -41 90 -91 163 -55 80 -145 168 -210 206 -47 28
-146 56 -192 55 -16 0 -49 -6 -72 -13z"/>
<path d="M5490 10530 c0 -11 322 -168 380 -185 94 -27 192 -35 282 -24 97 12
142 34 146 71 9 74 -192 125 -528 134 -102 2 -206 6 -232 8 -27 2 -48 0 -48
-4z"/>
<path d="M6682 10302 c-10 -7 -10 -15 -2 -38 16 -43 64 -89 160 -154 105 -71
120 -95 113 -175 -4 -52 -2 -65 19 -95 49 -72 146 -100 218 -62 40 21 80 90
80 137 -1 80 -85 187 -183 230 -34 15 -77 41 -95 56 -46 41 -121 77 -194 94
-72 17 -97 18 -116 7z"/>
<path d="M6396 10090 c-43 -13 -73 -47 -91 -101 -19 -56 -28 -64 -109 -104
-71 -35 -106 -79 -106 -135 0 -67 46 -100 141 -100 89 0 182 45 212 103 11 21
37 52 59 70 50 40 68 74 68 129 0 95 -87 164 -174 138z"/>
<path d="M8554 9815 c-14 -36 7 -84 55 -127 27 -24 56 -60 64 -80 16 -38 76
-89 135 -115 106 -45 65 120 -51 205 -28 22 -61 49 -72 62 -20 22 -53 42 -100
60 -20 8 -27 6 -31 -5z"/>
<path d="M7469 9755 c-33 -18 -53 -66 -46 -105 4 -17 0 -40 -8 -57 -33 -62 -6
-159 55 -203 81 -58 177 -57 232 2 25 27 28 37 28 102 0 79 -16 118 -77 193
-63 77 -125 100 -184 68z"/>
<path d="M2657 9511 c-466 -483 -810 -1060 -981 -1648 -19 -66 -38 -137 -41
-159 l-7 -39 43 60 c154 216 380 452 578 605 120 94 318 230 333 230 12 0 -21
-81 -68 -165 -61 -109 -159 -238 -349 -460 -194 -228 -256 -307 -351 -450
-212 -321 -341 -665 -406 -1080 -19 -122 -22 -180 -22 -455 0 -246 3 -343 17
-440 28 -203 70 -420 80 -420 5 0 7 16 3 38 -8 50 10 385 29 537 59 484 217
923 483 1348 63 100 107 161 392 537 185 245 295 451 346 646 25 94 26 118 34
469 5 206 16 445 26 540 9 94 16 186 16 206 -1 31 -38 199 -46 207 -2 1 -51
-47 -109 -107z"/>
<path d="M5466 9565 c-93 -32 -162 -80 -232 -160 -36 -41 -78 -77 -109 -92
-133 -67 -195 -145 -195 -243 0 -47 4 -56 38 -90 66 -66 163 -75 262 -25 60
31 118 90 130 134 30 114 149 210 279 224 92 11 151 67 151 145 0 114 -157
166 -324 107z"/>
<path d="M9256 9391 c-6 -9 45 -94 63 -105 23 -15 31 5 16 42 -21 52 -65 87
-79 63z"/>
<path d="M6472 9370 c-24 -5 -67 -23 -96 -40 -39 -22 -66 -30 -102 -30 -69 0
-140 -43 -199 -120 -40 -53 -60 -67 -138 -106 -102 -50 -139 -81 -168 -136
-58 -113 24 -213 160 -194 97 13 212 90 251 167 25 48 85 99 168 142 84 44
118 51 214 48 119 -3 188 40 188 119 0 54 -33 98 -93 125 -62 28 -126 37 -185
25z"/>
<path d="M7910 9330 c-26 -26 -25 -69 1 -124 33 -72 101 -104 138 -67 40 40
19 135 -41 186 -36 30 -71 32 -98 5z"/>
<path d="M8920 9316 c-11 -31 -3 -65 24 -96 12 -14 28 -38 36 -53 17 -33 72
-70 93 -61 47 18 15 136 -54 199 -47 42 -85 46 -99 11z"/>
<path d="M7211 9189 c-125 -37 -260 -211 -296 -384 -20 -96 -19 -178 5 -270
11 -43 20 -82 20 -87 0 -4 -46 -8 -103 -8 -136 0 -263 -22 -422 -75 -118 -38
-391 -162 -381 -172 2 -2 123 1 269 7 383 16 656 -6 890 -75 215 -62 376 -184
493 -371 25 -41 48 -74 50 -74 5 0 -5 78 -22 180 -19 104 -79 258 -139 354
-24 39 -78 111 -119 161 -96 116 -131 175 -152 255 -28 112 -8 206 72 321 38
55 47 77 48 113 2 100 -97 158 -213 125z"/>
<path d="M9366 9118 c9 -18 34 -62 54 -98 95 -163 154 -349 166 -515 10 -139
-8 -240 -87 -482 -38 -119 -68 -220 -66 -226 2 -6 14 5 27 24 13 19 79 90 145
159 164 169 194 234 195 416 0 148 -66 341 -164 477 -55 78 -257 277 -280 277
-4 0 1 -15 10 -32z"/>
<path d="M8198 9055 c-8 -19 -8 -35 0 -64 7 -21 12 -48 12 -59 0 -34 57 -92
91 -92 73 0 64 128 -14 213 -34 35 -73 36 -89 2z"/>
<path d="M9102 8928 c-19 -19 -14 -70 13 -113 13 -22 25 -52 25 -66 0 -28 58
-89 84 -89 25 0 46 36 46 78 0 109 -117 241 -168 190z"/>
<path d="M7843 8898 c-27 -30 -35 -67 -23 -108 7 -24 5 -48 -7 -91 -15 -54
-15 -61 1 -104 42 -110 138 -165 205 -119 51 36 77 152 48 212 -8 15 -19 53
-26 85 -10 46 -22 68 -55 103 -36 38 -48 44 -83 44 -28 0 -45 -6 -60 -22z"/>
<path d="M8345 8666 c-21 -21 -25 -35 -25 -83 0 -47 7 -69 32 -113 98 -171
100 -181 66 -275 -36 -101 -5 -205 62 -205 40 0 43 6 102 177 18 53 -5 129
-65 219 -50 73 -52 80 -50 136 3 72 -23 130 -67 153 -29 15 -31 15 -55 -9z"/>
<path d="M4487 8649 c-116 -27 -302 -145 -376 -239 -103 -130 -92 -266 26
-316 67 -29 171 -10 240 42 41 31 51 49 63 115 17 90 86 159 186 185 101 26
146 95 105 160 -33 54 -141 77 -244 53z"/>
<path d="M9935 8554 c4 -11 10 -62 12 -115 l6 -96 51 -18 c103 -37 234 -212
267 -360 7 -27 14 -57 17 -65 9 -25 20 38 21 121 4 242 -154 481 -358 544 -21
6 -23 5 -16 -11z"/>
<path d="M9106 8518 c-17 -24 -22 -108 -7 -123 5 -6 14 -27 21 -48 6 -20 21
-42 32 -48 71 -38 76 176 5 226 -28 20 -33 19 -51 -7z"/>
<path d="M5188 8456 c-54 -19 -85 -42 -110 -80 -12 -18 -36 -42 -53 -54 -18
-11 -43 -41 -55 -67 -59 -122 31 -237 175 -222 74 8 129 39 171 97 20 28 40
50 45 50 5 0 23 21 40 48 27 41 30 54 27 104 -3 44 -10 64 -29 84 -48 52 -132
68 -211 40z"/>
<path d="M8111 8251 c-76 -76 -60 -269 23 -279 22 -3 29 2 42 34 9 20 13 46
11 56 -3 11 -1 33 5 49 14 39 1 116 -23 140 -24 24 -34 24 -58 0z"/>
<path d="M9078 8096 c-13 -29 -5 -56 16 -56 17 0 31 42 22 65 -8 22 -25 18
-38 -9z"/>
<path d="M9882 7956 c-95 -18 -220 -79 -298 -144 -66 -54 -144 -162 -170 -233
-76 -212 -50 -476 68 -714 30 -59 251 -438 271 -463 7 -9 13 -9 23 -1 12 9 14
3 14 -36 0 -36 14 -78 59 -178 53 -120 104 -258 143 -392 l14 -50 13 100 c28
218 52 294 135 428 55 88 137 260 166 346 49 148 64 246 64 436 1 233 -29 377
-111 539 l-29 58 -18 -106 c-34 -211 -90 -322 -253 -502 -76 -84 -81 -92 -60
-98 73 -19 165 10 232 75 17 16 35 29 39 29 5 0 6 -38 3 -83 -11 -152 -73
-290 -197 -436 -39 -47 -83 -105 -97 -129 l-26 -43 -43 81 c-24 45 -44 85 -44
88 0 4 -38 81 -84 172 -104 204 -137 295 -139 377 -3 89 15 109 131 145 67 21
108 41 154 76 68 51 156 165 182 234 9 24 25 70 37 102 29 79 50 97 152 137
48 18 87 35 87 38 0 3 -9 20 -19 37 -60 98 -223 143 -399 110z m-177 -217 c14
-43 -60 -80 -93 -47 -19 19 -14 36 16 52 39 22 69 20 77 -5z m181 -81 c-8 -84
-62 -195 -119 -243 -67 -58 -94 -69 -177 -69 l-75 -1 -3 40 c-2 22 -1 68 3
103 6 59 8 62 28 55 79 -29 155 8 194 93 21 46 30 55 61 63 46 12 74 18 86 20
5 0 6 -27 2 -61z"/>
<path d="M6157 7950 l-388 -5 121 -109 c67 -60 128 -122 136 -137 17 -33 20
-34 65 -15 19 8 57 17 86 21 l52 7 22 -44 c42 -84 132 -213 192 -275 86 -89
175 -147 287 -184 85 -28 109 -32 230 -34 143 -2 196 -12 272 -51 63 -32 165
-129 205 -196 36 -59 73 -188 73 -254 0 -70 -27 -189 -64 -282 -19 -47 -33
-88 -31 -90 10 -11 171 166 223 246 156 238 160 436 15 697 -37 66 -105 197
-152 290 -73 148 -92 178 -147 232 -110 108 -261 163 -500 183 -65 5 -162 9
-214 8 -52 -2 -270 -5 -483 -8z m834 -196 c37 -33 14 -65 -47 -67 -27 -1 -41
5 -55 22 -23 28 -23 35 -2 56 20 21 76 15 104 -11z m-348 -40 c46 -3 80 -11
82 -17 2 -7 6 -29 10 -49 12 -73 101 -129 181 -113 38 7 115 71 126 104 3 12
10 11 39 -6 19 -12 47 -35 63 -52 28 -29 29 -33 17 -70 -19 -65 -70 -122 -141
-159 -61 -32 -70 -34 -146 -30 -69 3 -91 8 -156 40 -114 57 -183 144 -214 271
-21 82 -16 97 28 92 18 -3 68 -7 111 -11z"/>
<path d="M8889 7913 c-11 -29 3 -103 19 -103 19 0 32 27 32 65 0 63 -32 87
-51 38z"/>
<path d="M3848 7839 c-215 -50 -495 -361 -563 -624 -21 -81 -19 -180 4 -230
17 -37 83 -107 110 -116 7 -3 -10 -28 -39 -59 -74 -80 -156 -199 -196 -284
-132 -286 -57 -588 174 -705 24 -12 93 -33 154 -46 107 -24 190 -61 258 -114
l24 -19 -44 -11 c-180 -46 -274 -95 -376 -196 -132 -130 -182 -257 -191 -485
-4 -109 -1 -158 16 -255 24 -142 61 -280 71 -268 3 4 14 36 24 71 52 195 211
405 407 535 204 135 512 242 787 273 34 3 62 10 62 13 0 8 -148 65 -220 85
-50 14 -100 23 -215 42 l-40 6 47 24 c99 50 227 86 330 92 115 6 113 2 65 112
-129 296 -435 490 -771 490 -61 0 -128 -4 -148 -9 l-38 -9 0 37 c0 97 70 263
161 384 28 37 88 100 132 140 133 117 177 166 203 220 33 72 32 128 -4 168
-24 27 -37 32 -102 39 -41 5 -78 9 -82 10 -5 0 -26 16 -48 36 -104 95 -68 238
116 463 29 35 56 77 59 93 9 38 -10 83 -41 97 -28 12 -34 12 -86 0z"/>
<path d="M8505 7810 c-7 -23 2 -60 15 -60 15 0 31 40 25 60 -8 26 -32 26 -40
0z"/>
<path d="M5595 7751 c-22 -10 -71 -46 -109 -80 -39 -35 -78 -61 -91 -61 -50 0
-138 -97 -151 -167 -21 -109 47 -193 156 -193 97 1 194 80 205 169 12 90 17
102 71 160 77 83 88 126 46 174 -20 22 -76 22 -127 -2z"/>
<path d="M8214 7705 c-17 -43 -17 -63 1 -95 8 -14 15 -41 15 -60 0 -44 12 -63
36 -58 22 4 38 66 38 145 -1 94 -60 140 -90 68z"/>
<path d="M8887 7733 c-10 -10 -8 -51 3 -58 13 -8 25 44 13 56 -5 5 -12 6 -16
2z"/>
<path d="M4613 7719 c-127 -23 -235 -148 -235 -270 0 -109 71 -186 181 -196
51 -5 68 -2 113 20 31 15 60 39 71 56 10 17 34 47 54 68 45 48 63 90 63 149 0
119 -113 198 -247 173z"/>
<path d="M5882 7340 c-34 -21 -62 -72 -62 -112 0 -47 35 -92 96 -124 47 -25
63 -40 80 -75 41 -85 99 -110 193 -84 54 16 63 16 108 2 26 -9 77 -19 113 -23
l65 -7 -100 66 c-71 47 -106 77 -121 104 -13 24 -37 46 -64 60 -59 31 -80 52
-80 82 0 61 -83 131 -155 131 -23 0 -54 -9 -73 -20z"/>
<path d="M2675 6984 c-385 -337 -625 -661 -784 -1062 -125 -314 -187 -704
-162 -1026 30 -384 116 -693 297 -1061 150 -306 311 -548 544 -815 628 -723
1530 -1255 2415 -1424 350 -66 815 -76 1200 -25 203 27 605 114 605 131 0 5
-19 8 -43 8 -60 0 -323 37 -432 61 -266 58 -533 162 -742 290 -106 65 -220
158 -323 265 -150 156 -248 319 -306 509 -25 81 -28 105 -28 245 0 148 1 159
30 237 44 117 89 185 175 267 65 60 212 156 224 145 2 -2 -8 -38 -23 -79 -22
-65 -26 -92 -26 -205 -1 -154 20 -246 89 -392 181 -384 598 -727 1075 -887
448 -149 904 -154 1380 -14 431 127 832 368 1165 702 226 227 367 421 503 692
59 118 134 294 130 306 -2 4 -25 -20 -53 -54 -134 -166 -383 -380 -600 -515
-201 -125 -423 -229 -673 -313 -159 -54 -352 -103 -352 -90 0 5 9 11 20 15 39
12 277 201 267 211 -2 2 -38 -12 -80 -31 -115 -53 -248 -94 -382 -117 -172
-29 -394 -23 -552 16 -62 15 -113 32 -113 37 0 5 24 9 54 9 29 0 92 7 138 15
85 15 254 67 270 83 5 5 -58 12 -149 15 -175 6 -299 27 -453 78 -318 106 -511
248 -840 619 -287 324 -487 488 -766 628 -481 240 -1030 268 -1369 69 -240
-140 -380 -415 -361 -707 20 -301 189 -665 459 -985 218 -258 538 -522 821
-676 39 -21 66 -39 61 -39 -12 0 -204 67 -284 99 -88 35 -298 145 -396 207
-503 316 -929 821 -1150 1362 -149 368 -220 736 -240 1242 -6 148 5 489 21
628 3 28 1 52 -3 52 -5 0 -31 -30 -59 -67 -343 -466 -455 -1043 -317 -1628 14
-60 41 -154 59 -209 19 -55 32 -101 30 -103 -6 -6 -120 201 -169 307 -198 424
-261 850 -201 1356 40 345 146 715 392 1374 114 306 126 340 120 340 -2 0 -53
-43 -113 -96z"/>
<path d="M5370 6938 c-61 -31 -90 -77 -90 -142 1 -67 28 -125 88 -185 65 -65
136 -91 269 -100 96 -7 106 -9 155 -43 29 -20 66 -42 81 -47 71 -27 170 -1
195 51 11 23 10 33 -2 63 -42 99 -97 135 -206 135 -121 0 -198 51 -226 149
-35 119 -156 173 -264 119z"/>
<path d="M4596 6824 c-93 -30 -166 -129 -166 -227 0 -107 105 -249 222 -302
71 -32 165 -39 230 -17 99 35 161 151 139 261 -41 206 -245 343 -425 285z"/>
<path d="M7894 6517 c-54 -214 -34 -352 62 -435 36 -32 164 -117 164 -110 0 2
-20 45 -45 95 -86 179 -135 360 -135 500 0 28 -4 54 -9 57 -5 3 -21 -45 -37
-107z"/>
<path d="M6243 6475 c-48 -20 -48 -65 -2 -107 52 -49 169 -32 169 25 0 32 -28
67 -66 83 -41 17 -60 17 -101 -1z"/>
<path d="M6471 6381 c-22 -14 4 -41 39 -41 36 0 43 10 23 32 -18 20 -40 23
-62 9z"/>
<path d="M5715 6075 c101 -53 164 -102 172 -133 11 -47 33 -71 91 -99 160 -78
282 27 165 143 -68 69 -200 108 -395 120 l-103 6 70 -37z"/>
<path d="M5130 5931 c-175 -54 -191 -214 -30 -296 99 -51 232 -56 342 -15 157
58 146 190 -22 275 -78 40 -219 57 -290 36z"/>
<path d="M8024 5845 c-24 -128 68 -326 225 -489 95 -97 173 -162 373 -304 167
-119 243 -194 285 -280 51 -103 40 -184 -38 -282 -117 -148 -530 -322 -890
-374 -121 -18 -396 -21 -504 -6 -115 17 -274 60 -370 101 -79 34 -219 118
-211 126 2 2 66 -8 142 -23 259 -48 516 -43 764 17 l95 23 -80 8 c-44 4 -129
12 -190 18 -279 27 -641 129 -914 257 l-96 45 -490 -7 c-269 -4 -535 -10 -590
-14 l-100 -6 115 -17 c63 -9 168 -26 233 -39 l118 -22 86 -96 c47 -53 164
-200 259 -327 239 -320 369 -446 551 -538 122 -61 253 -96 363 -96 l65 0 -36
24 c-42 29 -86 90 -100 140 -12 42 1 101 31 138 44 56 184 89 295 69 127 -23
298 -32 416 -21 165 14 279 47 484 138 203 90 265 110 380 118 150 12 271 -36
329 -129 58 -95 42 -217 -61 -456 -13 -29 17 1 90 92 88 109 150 208 186 295
25 60 29 64 83 86 220 89 453 313 607 581 172 300 227 617 165 948 -19 100
-34 126 -34 58 0 -58 -37 -262 -71 -388 -59 -221 -124 -346 -256 -497 -24 -27
-42 -51 -40 -53 2 -2 25 6 51 17 26 11 50 20 52 20 2 0 -10 -28 -27 -62 -67
-133 -208 -300 -325 -384 -72 -52 -159 -94 -195 -94 -55 0 -148 81 -195 170
-42 81 -9 203 83 301 26 28 109 94 183 147 269 190 525 485 589 679 31 92 29
111 -14 119 -52 9 -112 -17 -206 -92 -147 -117 -275 -133 -474 -59 -280 103
-374 109 -597 39 l-76 -24 -184 182 c-112 112 -204 195 -238 215 -86 50 -88
50 -96 8z"/>
<path d="M6877 5530 c-81 -8 -217 -46 -217 -61 0 -5 7 -9 16 -9 43 0 199 -63
237 -95 51 -44 96 -59 160 -52 128 12 129 150 2 208 -42 20 -72 21 -198 9z"/>
<path d="M7312 5357 c-12 -13 -22 -31 -22 -40 0 -84 137 -141 196 -81 33 32
26 67 -21 112 -29 27 -42 32 -83 32 -38 0 -53 -5 -70 -23z"/>
<path d="M7632 5234 c-29 -20 -28 -49 3 -80 20 -20 33 -25 67 -22 24 2 45 10
51 19 16 25 0 67 -33 84 -37 19 -60 19 -88 -1z"/>
<path d="M5635 5210 c-186 -12 -378 -32 -395 -41 -8 -5 68 -9 170 -9 322 0
589 -27 855 -86 150 -33 171 -41 328 -119 92 -46 184 -87 205 -91 20 -3 47
-16 59 -27 12 -11 44 -25 72 -33 92 -23 171 15 171 84 0 71 -120 152 -227 152
-19 0 -70 18 -121 44 -138 69 -228 94 -402 111 -184 19 -546 27 -715 15z"/>
<path d="M7863 5133 c-21 -8 -15 -42 12 -59 44 -29 88 4 59 45 -14 20 -43 26
-71 14z"/>
<path d="M8030 5060 c-18 -11 -4 -40 20 -40 13 0 20 7 20 19 0 22 -21 33 -40
21z"/>
<path d="M7250 4889 c-74 -30 -42 -124 50 -149 53 -14 94 -5 119 26 23 29 19
47 -17 87 -38 40 -102 56 -152 36z"/>
<path d="M7568 4789 c-33 -19 -20 -72 23 -94 86 -45 174 28 103 84 -29 23 -96
28 -126 10z"/>
<path d="M7838 4729 c-40 -23 -6 -79 48 -79 54 0 73 45 32 74 -26 18 -55 20
-80 5z"/>
<path d="M8024 4679 c-3 -6 1 -18 9 -26 18 -18 67 -10 67 11 0 24 -62 37 -76
15z"/>
</g>
</svg>
